# 3ds Max Wavefront OBJ Exporter v0.97b - (c)2007 guruware
# File Created: 11.11.2015 20:27:56

mtllib Fox_final.mtl

#
# object Fox
#

v  111.0246 52.6046 46.2259
v  114.0250 87.6733 58.9818
v  66.1920 80.8980 55.3943
v  72.1133 35.4918 30.8714
v  97.8045 116.5610 73.9788
v  16.7623 58.0109 58.0782
v  52.6089 30.3641 42.5561
v  106.8814 31.9455 46.9133
v  113.4846 38.6049 49.1215
v  108.6633 43.2332 46.3154
v  101.2166 15.9822 46.3082
v  16.6605 -16.2883 93.6187
v  40.7750 -10.2288 85.2764
v  23.9269 -2.5103 86.7365
v  11.1691 -7.0037 99.3776
v  9.5692 -34.3939 141.6720
v  12.5960 7.1655 88.7410
v  61.1809 8.8142 76.9968
v  39.7195 -28.9271 88.9638
v  13.7962 -68.5757 132.0570
v  15.2674 -62.3200 129.6880
v  14.8446 -52.6096 140.1130
v  12.8917 -49.7716 144.7410
v  35.6042 -71.7580 81.0639
v  47.4625 -68.6061 63.3697
v  38.2486 -64.7302 38.9099
v  -12.8917 -49.7716 144.7410
v  -13.7962 -68.5757 132.0570
v  17.8021 -71.7580 81.0639
v  19.1243 -69.0168 49.4201
v  38.2486 -66.2756 17.7762
v  12.8928 -36.7035 141.6720
v  109.2840 -93.5899 27.8243
v  122.1180 -36.8894 35.0250
v  67.7668 -30.1970 78.4178
v  33.1807 101.8520 25.3186
v  9.4063 -35.5898 150.7220
v  -9.5692 -34.3939 141.6720
v  -9.4063 -35.5898 150.7220
v  11.4565 -37.8994 150.7220
v  -12.5960 7.1655 88.7410
v  -11.1691 -7.0037 99.3776
v  70.2365 62.8362 -3.9475
v  47.2634 54.2940 -27.4148
v  28.7302 91.7311 -24.9726
v  69.1676 6.5862 -12.7757
v  28.7302 49.1003 -48.3596
v  31.9030 5.6920 -47.8220
v  35.0758 -34.4329 -16.2809
v  115.2841 48.6815 48.6841
v  110.8428 28.4821 49.1762
v  -19.1243 -69.0168 49.4201
v  -38.2486 -66.2756 17.7762
v  -111.0246 52.6046 46.2259
v  -72.1133 35.4918 30.8714
v  -66.1920 80.8980 55.3943
v  -114.0250 87.6733 58.9818
v  -97.8045 116.5610 73.9788
v  -52.6089 30.3641 42.5561
v  -16.7623 58.0109 58.0782
v  -106.8814 31.9455 46.9133
v  -108.6633 43.2332 46.3154
v  -113.4846 38.6049 49.1215
v  -101.2166 15.9822 46.3082
v  -16.6605 -16.2883 93.6187
v  -23.9269 -2.5103 86.7365
v  -40.7750 -10.2288 85.2764
v  -61.1809 8.8142 76.9968
v  -39.7195 -28.9271 88.9638
v  -14.8446 -52.6096 140.1130
v  -15.2674 -62.3200 129.6880
v  -47.4625 -68.6061 63.3697
v  -35.6042 -71.7580 81.0639
v  -38.2486 -64.7302 38.9099
v  -17.8021 -71.7580 81.0639
v  -12.8928 -36.7035 141.6720
v  -67.7668 -30.1970 78.4178
v  -122.1180 -36.8894 35.0250
v  -109.2840 -93.5899 27.8243
v  -33.1807 101.8520 25.3186
v  -11.4565 -37.8994 150.7220
v  -70.2365 62.8362 -3.9475
v  -28.7302 91.7311 -24.9726
v  -47.2634 54.2940 -27.4148
v  -69.1676 6.5862 -12.7757
v  -28.7302 49.1003 -48.3596
v  -31.9030 5.6920 -47.8220
v  -35.0758 -34.4329 -16.2809
v  -115.2841 48.6815 48.6841
v  -110.8428 28.4821 49.1762
# 90 vertices

vn 0.7370 -0.3865 0.5546
vn 0.9199 0.1389 0.3667
vn 0.1900 -0.5147 0.8361
vn 0.2801 0.1122 0.9534
vn 0.6993 0.0217 0.7145
vn -0.0535 0.9811 0.1862
vn 0.0907 0.4110 0.9071
vn 0.3924 0.3854 0.8352
vn -0.4161 0.1135 0.9022
vn 0.9313 0.3305 0.1528
vn 0.6253 0.4735 0.6203
vn 0.2333 0.1851 0.9546
vn 0.1642 0.0584 0.9847
vn 0.5371 0.5881 0.6046
vn 0.3186 0.8942 0.3145
vn 0.2268 0.4928 0.8400
vn 0.3466 0.5106 0.7868
vn 0.5881 0.0717 0.8056
vn 0.4801 -0.7241 0.4952
vn 0.9042 -0.2441 0.3505
vn 0.8872 -0.1463 0.4377
vn 0.5818 -0.3153 0.7497
vn 0.4266 -0.8832 0.1949
vn 0.2709 -0.8851 0.3785
vn 0.3719 -0.9273 0.0414
vn -0.5818 -0.3153 0.7497
vn -0.4801 -0.7241 0.4952
vn 0.0000 -0.9999 -0.0120
vn 0.0000 -0.9963 -0.0863
vn 0.1345 -0.8295 -0.5421
vn 0.8279 0.4659 0.3124
vn 0.6195 -0.7596 -0.1983
vn 0.9787 0.0368 -0.2019
vn 0.4868 -0.1963 0.8512
vn 0.0346 0.9947 0.0971
vn 0.2822 0.6690 0.6876
vn -0.3186 0.8942 0.3145
vn -0.2822 0.6690 0.6876
vn 0.6345 0.0851 0.7682
vn -0.2268 0.4928 0.8400
vn -0.5371 0.5881 0.6046
vn 0.6838 0.4043 -0.6074
vn 0.6730 0.2182 -0.7068
vn 0.3172 0.7557 -0.5730
vn 0.7840 -0.2176 -0.5814
vn 0.3610 0.2226 -0.9056
vn 0.3504 -0.2724 -0.8961
vn 0.3421 -0.6267 -0.7001
vn 0.7261 0.4798 -0.4924
vn 0.6196 -0.3882 -0.6822
vn 0.6671 0.7444 -0.0286
vn 0.6354 -0.3291 -0.6985
vn -0.4071 0.1101 0.9067
vn -0.4068 0.1122 0.9066
vn 0.7467 0.5654 -0.3503
vn 0.6096 -0.4601 -0.6455
vn -0.4067 0.1111 0.9068
vn -0.1345 -0.8295 -0.5421
vn -0.7370 -0.3865 0.5546
vn -0.2801 0.1122 0.9534
vn -0.1900 -0.5147 0.8361
vn -0.9199 0.1389 0.3667
vn 0.3807 0.2884 0.8786
vn -0.7892 0.6096 0.0742
vn -0.3924 0.3854 0.8352
vn -0.0907 0.4110 0.9071
vn 0.4161 0.1135 0.9022
vn -0.9313 0.3305 0.1528
vn -0.6253 0.4735 0.6203
vn -0.1642 0.0584 0.9847
vn -0.2333 0.1851 0.9546
vn -0.3466 0.5106 0.7868
vn -0.5881 0.0717 0.8056
vn -0.8872 -0.1463 0.4377
vn -0.9042 -0.2441 0.3505
vn -0.2709 -0.8851 0.3785
vn -0.4266 -0.8832 0.1949
vn -0.3719 -0.9273 0.0414
vn -0.8279 0.4659 0.3124
vn -0.4868 -0.1963 0.8512
vn -0.9787 0.0368 -0.2019
vn -0.6195 -0.7596 -0.1983
vn -0.0346 0.9947 0.0971
vn -0.6345 0.0851 0.7682
vn -0.6838 0.4043 -0.6074
vn -0.3172 0.7557 -0.5730
vn -0.6730 0.2182 -0.7068
vn -0.7840 -0.2176 -0.5814
vn -0.3610 0.2226 -0.9056
vn -0.3504 -0.2724 -0.8961
vn -0.3421 -0.6267 -0.7001
vn -0.7261 0.4798 -0.4924
vn -0.6196 -0.3882 -0.6822
vn -0.6671 0.7444 -0.0286
vn -0.6354 -0.3291 -0.6985
vn 0.4071 0.1101 0.9067
vn 0.4068 0.1122 0.9066
vn -0.7467 0.5654 -0.3503
vn -0.6096 -0.4601 -0.6455
vn 0.4067 0.1111 0.9068
# 100 vertex normals

vt 0.0000 1.0000 0.0000
vt 1.0000 0.0000 0.0000
vt 0.0000 0.0000 0.0000
vt 0.9129 -0.1785 0.0000
vt 0.8013 0.0000 0.0000
vt 0.4007 0.0000 0.0000
vt 0.0000 0.6758 0.0000
vt 0.0000 0.5000 0.0000
vt 1.0000 1.0000 0.0000
vt 1.0000 1.0000 1.0000
# 10 texture coords

g Fox
usemtl 3
s 1
f 1/1/1 2/1/2 3/1/3 
f 3/1/3 4/1/4 1/1/1 
f 3/1/3 5/1/5 5/1/6 
f 5/1/6 6/1/7 3/1/3 
f 7/1/8 4/1/4 3/1/3 
f 3/1/3 6/1/7 7/1/8 
f 8/1/9 9/1/9 10/1/9 
f 11/1/10 4/1/4 7/1/8 
usemtl 8
f 12/1/11 13/1/12 14/1/13 
usemtl 9
f 15/1/14 16/1/15 12/1/11 
f 12/1/11 17/1/16 15/1/14 
f 18/1/17 13/1/12 19/1/18 
usemtl 6
f 20/2/19 21/3/20 22/3/21 
f 22/3/21 23/2/22 20/2/19 
f 21/3/20 20/2/19 24/4/23 
f 24/4/23 25/3/24 21/3/20 
f 24/5/23 26/3/25 25/3/24 
f 20/3/19 23/3/22 27/3/26 
f 27/3/26 28/3/27 20/3/19 
f 24/5/23 29/5/28 30/6/29 
f 24/5/23 30/6/29 31/3/30 
f 26/3/25 24/5/23 31/3/30 
usemtl 5
f 22/3/21 21/3/20 25/3/24 
f 25/3/24 32/1/31 22/3/21 
usemtl 2
f 32/1/31 25/3/24 19/1/18 
f 7/1/8 6/1/7 17/1/16 
f 17/1/16 18/1/17 7/1/8 
f 25/3/24 33/3/32 34/7/33 
f 34/7/33 35/8/34 25/3/24 
f 6/1/7 5/1/6 36/1/35 
usemtl 7
f 25/3/24 35/8/34 19/1/18 
f 17/1/16 14/1/13 13/1/12 
f 13/1/12 18/1/17 17/1/16 
f 14/1/13 17/1/16 12/1/11 
usemtl 4
f 37/3/36 16/1/15 38/1/37 
f 38/1/37 39/3/38 37/3/36 
f 32/1/31 40/9/39 23/2/22 
f 23/2/22 22/3/21 32/1/31 
f 32/1/31 16/1/15 37/3/36 
f 37/3/36 40/3/39 32/1/31 
usemtl 1
f 18/1/17 34/7/33 11/1/10 
f 18/1/17 19/1/18 35/8/34 
f 35/8/34 34/7/33 18/1/17 
f 11/1/10 7/1/8 18/1/17 
f 12/1/11 16/1/15 32/1/31 
f 32/1/31 19/1/18 12/1/11 
f 19/1/18 13/1/12 12/1/11 
f 15/1/14 17/1/16 41/1/40 
f 41/1/40 42/1/41 15/1/14 
usemtl 02___Default
f 36/1/35 5/1/6 43/1/42 
f 5/1/5 2/1/2 43/1/42 
f 43/1/42 5/1/6 5/1/5 
f 43/1/42 44/1/43 45/1/44 
f 45/1/44 36/1/35 43/1/42 
f 46/1/45 44/1/43 43/1/42 
f 43/1/42 11/1/10 46/1/45 
f 31/3/30 33/3/32 25/3/24 
f 25/3/24 26/3/25 31/3/30 
f 31/3/30 34/7/33 33/3/32 
f 34/7/33 31/3/30 11/1/10 
f 45/1/44 44/1/43 47/1/46 
f 44/1/43 46/1/45 48/1/47 
f 48/1/47 47/1/46 44/1/43 
f 49/1/48 48/1/47 46/1/45 
f 46/1/45 31/3/30 49/1/48 
f 31/3/30 46/1/45 11/1/10 
s off
f 50/10/49 43/1/49 1/1/49 
f 9/10/50 8/1/50 43/1/50 
f 51/10/51 43/1/51 8/1/51 
f 51/10/52 11/1/52 43/1/52 
usemtl 3
f 11/1/9 51/10/9 8/1/9 
f 8/1/53 4/1/53 11/1/53 
usemtl 02___Default
s 1
f 2/1/2 1/1/1 43/1/42 
usemtl 3
s off
f 8/1/54 10/1/54 4/1/54 
usemtl 02___Default
f 43/1/55 10/1/55 9/10/55 
f 43/1/56 50/10/56 10/1/56 
usemtl 3
f 50/10/9 1/1/9 10/1/9 
f 4/1/57 10/1/57 1/1/57 
usemtl 6
s 1
f 30/6/29 52/6/29 53/3/58 
f 53/3/58 31/3/30 30/6/29 
usemtl 3
f 54/1/59 55/1/60 56/1/61 
f 56/1/61 57/1/62 54/1/59 
usemtl 02___Default
f 56/1/61 58/1/63 58/1/64 
usemtl 3
f 58/1/64 57/1/62 56/1/61 
f 59/1/65 60/1/66 56/1/61 
f 56/1/61 55/1/60 59/1/65 
f 61/1/67 62/1/67 63/1/67 
f 64/1/68 59/1/65 55/1/60 
usemtl 8
f 65/1/69 66/1/70 67/1/71 
usemtl 9
f 42/1/41 65/1/69 38/1/37 
usemtl 02___Default
f 65/1/69 42/1/41 41/1/40 
usemtl 9
f 68/1/72 69/1/73 67/1/71 
usemtl 6
f 28/2/27 27/2/26 70/3/74 
f 70/3/74 71/3/75 28/2/27 
f 71/3/75 72/3/76 73/4/77 
f 73/4/77 28/2/27 71/3/75 
f 73/5/77 72/3/76 74/3/78 
f 52/6/29 75/5/28 73/5/77 
f 53/3/58 52/6/29 73/5/77 
f 74/3/78 53/3/58 73/5/77 
usemtl 5
f 70/3/74 72/3/76 71/3/75 
f 72/3/76 70/3/74 76/1/79 
usemtl 2
f 76/1/79 69/1/73 72/3/76 
f 59/1/65 68/1/72 41/1/40 
f 41/1/40 60/1/66 59/1/65 
f 72/3/76 77/8/80 78/7/81 
f 78/7/81 79/3/82 72/3/76 
usemtl 02___Default
f 58/1/63 60/1/66 80/1/83 
f 80/1/83 58/1/64 58/1/63 
usemtl 7
f 72/3/76 69/1/73 77/8/80 
f 41/1/40 68/1/72 67/1/71 
f 67/1/71 66/1/70 41/1/40 
f 66/1/70 65/1/69 41/1/40 
usemtl 4
f 76/1/79 70/3/74 27/2/26 
f 27/2/26 81/9/84 76/1/79 
f 76/1/79 81/3/84 39/3/38 
f 39/3/38 38/1/37 76/1/79 
f 39/3/38 81/3/84 40/3/39 
f 40/3/39 37/3/36 39/3/38 
usemtl 1
f 60/1/66 6/1/7 36/1/35 
f 36/1/35 80/1/83 60/1/66 
f 68/1/72 64/1/68 78/7/81 
f 68/1/72 78/7/81 77/8/80 
f 77/8/80 69/1/73 68/1/72 
f 64/1/68 68/1/72 59/1/65 
f 65/1/69 69/1/73 76/1/79 
f 76/1/79 38/1/37 65/1/69 
f 69/1/73 65/1/69 67/1/71 
usemtl 02___Default
f 80/1/83 82/1/85 58/1/64 
f 58/1/64 82/1/85 57/1/62 
f 83/1/86 80/1/83 36/1/35 
f 36/1/35 45/1/44 83/1/86 
f 82/1/85 80/1/83 83/1/86 
f 83/1/86 84/1/87 82/1/85 
f 85/1/88 64/1/68 82/1/85 
f 82/1/85 84/1/87 85/1/88 
f 45/1/44 47/1/46 86/1/89 
f 86/1/89 83/1/86 45/1/44 
f 53/3/58 74/3/78 72/3/76 
f 72/3/76 79/3/82 53/3/58 
f 53/3/58 79/3/82 78/7/81 
f 78/7/81 64/1/68 53/3/58 
f 83/1/86 86/1/89 84/1/87 
f 84/1/87 86/1/89 87/1/90 
f 87/1/90 85/1/88 84/1/87 
f 88/1/91 53/3/58 85/1/88 
f 85/1/88 87/1/90 88/1/91 
f 53/3/58 64/1/68 85/1/88 
usemtl 6
f 20/2/19 28/2/27 75/4/28 
f 75/4/28 29/4/28 20/2/19 
usemtl 02___Default
s off
f 89/10/92 54/1/92 82/1/92 
f 63/10/93 82/1/93 61/1/93 
f 90/10/94 61/1/94 82/1/94 
f 90/10/95 82/1/95 64/1/95 
usemtl 3
f 64/1/67 61/1/67 90/10/67 
f 61/1/96 64/1/96 55/1/96 
usemtl 02___Default
s 1
f 57/1/62 82/1/85 54/1/59 
usemtl 3
s off
f 61/1/97 55/1/97 62/1/97 
usemtl 02___Default
f 82/1/98 63/10/98 62/1/98 
f 82/1/99 62/1/99 89/10/99 
usemtl 3
f 89/10/67 62/1/67 54/1/67 
f 55/1/100 54/1/100 62/1/100 
usemtl 6
s 1
f 52/6/29 30/6/29 29/5/28 
f 29/5/28 75/5/28 52/6/29 
usemtl 1
f 15/1/14 42/1/41 38/1/37 
f 38/1/37 16/1/15 15/1/14 
usemtl 02___Default
f 49/1/48 88/1/91 87/1/90 
f 87/1/90 48/1/47 49/1/48 
usemtl 6
f 75/4/28 28/2/27 73/4/77 
usemtl 4
f 40/1/39 81/1/84 27/3/26 
f 27/3/26 23/3/22 40/1/39 
usemtl 1
f 6/1/7 60/1/66 41/1/40 
f 41/1/40 17/1/16 6/1/7 
usemtl 02___Default
f 48/1/47 87/1/90 86/1/89 
f 86/1/89 47/1/46 48/1/47 
f 49/1/48 31/1/30 53/1/58 
f 53/1/58 88/1/91 49/1/48 
usemtl 6
f 29/4/28 24/4/23 20/2/19 
usemtl 3
f 3/1/3 2/1/2 5/1/5 
f 56/1/61 60/1/66 58/1/63 
# 180 faces

