solid Object01
  facet normal -2.234389e-002 -9.401399e-001 -3.400555e-001
    outer loop
      vertex 1.110246e+002 -4.622588e+001 5.260458e+001
      vertex 1.140250e+002 -5.898180e+001 8.767330e+001
      vertex 6.619200e+001 -5.539430e+001 8.089800e+001
    endloop
  endfacet
  facet normal -1.285747e-001 -8.654664e-001 -4.841865e-001
    outer loop
      vertex 6.619200e+001 -5.539430e+001 8.089800e+001
      vertex 7.211330e+001 -3.087140e+001 3.549180e+001
      vertex 1.110246e+002 -4.622588e+001 5.260458e+001
    endloop
  endfacet
  facet normal 1.000000e+000 0.000000e+000 0.000000e+000
    outer loop
      vertex 6.619200e+001 -5.539430e+001 8.089800e+001
      vertex 9.780450e+001 -7.397880e+001 1.165610e+002
      vertex 9.780450e+001 -7.397880e+001 1.165610e+002
    endloop
  endfacet
  facet normal 3.392835e-001 -6.767244e-001 -6.533994e-001
    outer loop
      vertex 9.780450e+001 -7.397880e+001 1.165610e+002
      vertex 1.676230e+001 -5.807820e+001 5.801090e+001
      vertex 6.619200e+001 -5.539430e+001 8.089800e+001
    endloop
  endfacet
  facet normal 5.474646e-001 -7.640796e-001 -3.412694e-001
    outer loop
      vertex 5.260890e+001 -4.255610e+001 3.036410e+001
      vertex 7.211330e+001 -3.087140e+001 3.549180e+001
      vertex 6.619200e+001 -5.539430e+001 8.089800e+001
    endloop
  endfacet
  facet normal 1.845070e-001 -9.395960e-001 -2.882995e-001
    outer loop
      vertex 6.619200e+001 -5.539430e+001 8.089800e+001
      vertex 1.676230e+001 -5.807820e+001 5.801090e+001
      vertex 5.260890e+001 -4.255610e+001 3.036410e+001
    endloop
  endfacet
  facet normal -4.161456e-001 -9.021894e-001 1.134776e-001
    outer loop
      vertex 1.068814e+002 -4.691331e+001 3.194553e+001
      vertex 1.134846e+002 -4.912148e+001 3.860495e+001
      vertex 1.086633e+002 -4.631544e+001 4.323324e+001
    endloop
  endfacet
  facet normal 1.761250e-001 -6.270033e-001 7.588457e-001
    outer loop
      vertex 1.012166e+002 -4.630820e+001 1.598224e+001
      vertex 7.211330e+001 -3.087140e+001 3.549180e+001
      vertex 5.260890e+001 -4.255610e+001 3.036410e+001
    endloop
  endfacet
  facet normal 2.321428e-001 -9.135737e-001 3.339052e-001
    outer loop
      vertex 1.666050e+001 -9.361870e+001 -1.628830e+001
      vertex 4.077500e+001 -8.527640e+001 -1.022880e+001
      vertex 2.392690e+001 -8.673650e+001 -2.510290e+000
    endloop
  endfacet
  facet normal 8.928740e-001 -2.680859e-001 3.618093e-001
    outer loop
      vertex 1.116910e+001 -9.937760e+001 -7.003720e+000
      vertex 9.569200e+000 -1.416720e+002 -3.439390e+001
      vertex 1.666050e+001 -9.361870e+001 -1.628830e+001
    endloop
  endfacet
  facet normal 8.663456e-001 -4.373958e-001 2.411020e-001
    outer loop
      vertex 1.666050e+001 -9.361870e+001 -1.628830e+001
      vertex 1.259600e+001 -8.874100e+001 7.165460e+000
      vertex 1.116910e+001 -9.937760e+001 -7.003720e+000
    endloop
  endfacet
  facet normal 2.243112e-001 -9.584294e-001 1.763451e-001
    outer loop
      vertex 6.118090e+001 -7.699680e+001 8.814170e+000
      vertex 4.077500e+001 -8.527640e+001 -1.022880e+001
      vertex 3.971950e+001 -8.896380e+001 -2.892710e+001
    endloop
  endfacet
  facet normal 9.698057e-001 -1.861222e-001 -1.575929e-001
    outer loop
      vertex 1.379620e+001 -1.320570e+002 -6.857570e+001
      vertex 1.526740e+001 -1.296880e+002 -6.232000e+001
      vertex 1.484460e+001 -1.401130e+002 -5.260960e+001
    endloop
  endfacet
  facet normal 7.879252e-001 -5.273969e-001 -3.178466e-001
    outer loop
      vertex 1.484460e+001 -1.401130e+002 -5.260960e+001
      vertex 1.289170e+001 -1.447410e+002 -4.977160e+001
      vertex 1.379620e+001 -1.320570e+002 -6.857570e+001
    endloop
  endfacet
  facet normal 9.159856e-001 -3.958246e-001 -6.552237e-002
    outer loop
      vertex 1.526740e+001 -1.296880e+002 -6.232000e+001
      vertex 1.379620e+001 -1.320570e+002 -6.857570e+001
      vertex 3.560420e+001 -8.106390e+001 -7.175800e+001
    endloop
  endfacet
  facet normal 7.537432e-001 -4.142701e-001 -5.101485e-001
    outer loop
      vertex 3.560420e+001 -8.106390e+001 -7.175800e+001
      vertex 4.746250e+001 -6.336970e+001 -6.860610e+001
      vertex 1.526740e+001 -1.296880e+002 -6.232000e+001
    endloop
  endfacet
  facet normal 1.853552e-002 1.632879e-001 -9.864043e-001
    outer loop
      vertex 3.560420e+001 -8.106390e+001 -7.175800e+001
      vertex 3.824860e+001 -3.890990e+001 -6.473020e+001
      vertex 4.746250e+001 -6.336970e+001 -6.860610e+001
    endloop
  endfacet
  facet normal 0.000000e+000 -8.290281e-001 -5.592070e-001
    outer loop
      vertex 1.379620e+001 -1.320570e+002 -6.857570e+001
      vertex 1.289170e+001 -1.447410e+002 -4.977160e+001
      vertex -1.289170e+001 -1.447410e+002 -4.977160e+001
    endloop
  endfacet
  facet normal 0.000000e+000 -8.290281e-001 -5.592070e-001
    outer loop
      vertex -1.289170e+001 -1.447410e+002 -4.977160e+001
      vertex -1.379620e+001 -1.320570e+002 -6.857570e+001
      vertex 1.379620e+001 -1.320570e+002 -6.857570e+001
    endloop
  endfacet
  facet normal 0.000000e+000 8.630350e-002 -9.962689e-001
    outer loop
      vertex 3.560420e+001 -8.106390e+001 -7.175800e+001
      vertex 1.780210e+001 -8.106390e+001 -7.175800e+001
      vertex 1.912430e+001 -4.942005e+001 -6.901680e+001
    endloop
  endfacet
  facet normal 0.000000e+000 8.630350e-002 -9.962689e-001
    outer loop
      vertex 3.560420e+001 -8.106390e+001 -7.175800e+001
      vertex 1.912430e+001 -4.942005e+001 -6.901680e+001
      vertex 3.824860e+001 -1.777620e+001 -6.627560e+001
    endloop
  endfacet
  facet normal 9.672894e-001 -1.850051e-002 -2.529996e-001
    outer loop
      vertex 3.824860e+001 -3.890990e+001 -6.473020e+001
      vertex 3.560420e+001 -8.106390e+001 -7.175800e+001
      vertex 3.824860e+001 -1.777620e+001 -6.627560e+001
    endloop
  endfacet
  facet normal 7.981061e-001 -4.276790e-001 -4.244022e-001
    outer loop
      vertex 1.484460e+001 -1.401130e+002 -5.260960e+001
      vertex 1.526740e+001 -1.296880e+002 -6.232000e+001
      vertex 4.746250e+001 -6.336970e+001 -6.860610e+001
    endloop
  endfacet
  facet normal 9.232662e-001 -3.764890e-001 7.639147e-002
    outer loop
      vertex 4.746250e+001 -6.336970e+001 -6.860610e+001
      vertex 1.289280e+001 -1.416720e+002 -3.670350e+001
      vertex 1.484460e+001 -1.401130e+002 -5.260960e+001
    endloop
  endfacet
  facet normal 8.923267e-001 -4.381574e-001 -1.084946e-001
    outer loop
      vertex 1.289280e+001 -1.416720e+002 -3.670350e+001
      vertex 4.746250e+001 -6.336970e+001 -6.860610e+001
      vertex 3.971950e+001 -8.896380e+001 -2.892710e+001
    endloop
  endfacet
  facet normal 5.975352e-001 -7.073593e-001 3.776169e-001
    outer loop
      vertex 5.260890e+001 -4.255610e+001 3.036410e+001
      vertex 1.676230e+001 -5.807820e+001 5.801090e+001
      vertex 1.259600e+001 -8.874100e+001 7.165460e+000
    endloop
  endfacet
  facet normal 9.453969e-002 -5.110408e-001 8.543416e-001
    outer loop
      vertex 1.259600e+001 -8.874100e+001 7.165460e+000
      vertex 6.118090e+001 -7.699680e+001 8.814170e+000
      vertex 5.260890e+001 -4.255610e+001 3.036410e+001
    endloop
  endfacet
  facet normal 4.231161e-001 -8.819316e-001 -2.077724e-001
    outer loop
      vertex 4.746250e+001 -6.336970e+001 -6.860610e+001
      vertex 1.092840e+002 -2.782430e+001 -9.358990e+001
      vertex 1.221180e+002 -3.502500e+001 -3.688940e+001
    endloop
  endfacet
  facet normal 4.883542e-001 -6.933965e-001 -5.298221e-001
    outer loop
      vertex 1.221180e+002 -3.502500e+001 -3.688940e+001
      vertex 6.776680e+001 -7.841780e+001 -3.019700e+001
      vertex 4.746250e+001 -6.336970e+001 -6.860610e+001
    endloop
  endfacet
  facet normal -5.568134e-001 -5.518104e-001 6.208575e-001
    outer loop
      vertex 1.676230e+001 -5.807820e+001 5.801090e+001
      vertex 9.780450e+001 -7.397880e+001 1.165610e+002
      vertex 3.318070e+001 -2.531860e+001 1.018520e+002
    endloop
  endfacet
  facet normal 2.900649e-001 -8.290077e-001 -4.781303e-001
    outer loop
      vertex 4.746250e+001 -6.336970e+001 -6.860610e+001
      vertex 6.776680e+001 -7.841780e+001 -3.019700e+001
      vertex 3.971950e+001 -8.896380e+001 -2.892710e+001
    endloop
  endfacet
  facet normal -1.734058e-002 -9.748332e-001 -2.222600e-001
    outer loop
      vertex 1.259600e+001 -8.874100e+001 7.165460e+000
      vertex 2.392690e+001 -8.673650e+001 -2.510290e+000
      vertex 4.077500e+001 -8.527640e+001 -1.022880e+001
    endloop
  endfacet
  facet normal 2.257325e-001 -9.583787e-001 1.748001e-001
    outer loop
      vertex 4.077500e+001 -8.527640e+001 -1.022880e+001
      vertex 6.118090e+001 -7.699680e+001 8.814170e+000
      vertex 1.259600e+001 -8.874100e+001 7.165460e+000
    endloop
  endfacet
  facet normal 3.719116e-001 -8.938714e-001 2.503510e-001
    outer loop
      vertex 2.392690e+001 -8.673650e+001 -2.510290e+000
      vertex 1.259600e+001 -8.874100e+001 7.165460e+000
      vertex 1.666050e+001 -9.361870e+001 -1.628830e+001
    endloop
  endfacet
  facet normal 0.000000e+000 -1.310047e-001 9.913818e-001
    outer loop
      vertex 9.406250e+000 -1.507220e+002 -3.558980e+001
      vertex 9.569200e+000 -1.416720e+002 -3.439390e+001
      vertex -9.569200e+000 -1.416720e+002 -3.439390e+001
    endloop
  endfacet
  facet normal 0.000000e+000 -1.310047e-001 9.913818e-001
    outer loop
      vertex -9.569200e+000 -1.416720e+002 -3.439390e+001
      vertex -9.406250e+000 -1.507220e+002 -3.558980e+001
      vertex 9.406250e+000 -1.507220e+002 -3.558980e+001
    endloop
  endfacet
  facet normal 9.861451e-001 -1.615095e-001 3.784693e-002
    outer loop
      vertex 1.289280e+001 -1.416720e+002 -3.670350e+001
      vertex 1.145650e+001 -1.507220e+002 -3.789940e+001
      vertex 1.289170e+001 -1.447410e+002 -4.977160e+001
    endloop
  endfacet
  facet normal 9.351192e-001 -3.449660e-001 8.093538e-002
    outer loop
      vertex 1.289170e+001 -1.447410e+002 -4.977160e+001
      vertex 1.484460e+001 -1.401130e+002 -5.260960e+001
      vertex 1.289280e+001 -1.416720e+002 -3.670350e+001
    endloop
  endfacet
  facet normal 5.666685e-001 -1.179607e-001 8.154582e-001
    outer loop
      vertex 1.289280e+001 -1.416720e+002 -3.670350e+001
      vertex 9.569200e+000 -1.416720e+002 -3.439390e+001
      vertex 9.406250e+000 -1.507220e+002 -3.558980e+001
    endloop
  endfacet
  facet normal 7.324072e-001 -2.021533e-001 6.501644e-001
    outer loop
      vertex 9.406250e+000 -1.507220e+002 -3.558980e+001
      vertex 1.145650e+001 -1.507220e+002 -3.789940e+001
      vertex 1.289280e+001 -1.416720e+002 -3.670350e+001
    endloop
  endfacet
  facet normal 5.994504e-001 -7.976230e-001 6.675824e-002
    outer loop
      vertex 6.118090e+001 -7.699680e+001 8.814170e+000
      vertex 1.221180e+002 -3.502500e+001 -3.688940e+001
      vertex 1.012166e+002 -4.630820e+001 1.598224e+001
    endloop
  endfacet
  facet normal 3.541158e-001 -9.304982e-001 9.367590e-002
    outer loop
      vertex 6.118090e+001 -7.699680e+001 8.814170e+000
      vertex 3.971950e+001 -8.896380e+001 -2.892710e+001
      vertex 6.776680e+001 -7.841780e+001 -3.019700e+001
    endloop
  endfacet
  facet normal 6.283194e-001 -7.663303e-001 1.339873e-001
    outer loop
      vertex 6.776680e+001 -7.841780e+001 -3.019700e+001
      vertex 1.221180e+002 -3.502500e+001 -3.688940e+001
      vertex 6.118090e+001 -7.699680e+001 8.814170e+000
    endloop
  endfacet
  facet normal 2.148360e-001 -4.790621e-001 8.510846e-001
    outer loop
      vertex 1.012166e+002 -4.630820e+001 1.598224e+001
      vertex 5.260890e+001 -4.255610e+001 3.036410e+001
      vertex 6.118090e+001 -7.699680e+001 8.814170e+000
    endloop
  endfacet
  facet normal 5.309975e-001 -3.662689e-001 7.641261e-001
    outer loop
      vertex 1.666050e+001 -9.361870e+001 -1.628830e+001
      vertex 9.569200e+000 -1.416720e+002 -3.439390e+001
      vertex 1.289280e+001 -1.416720e+002 -3.670350e+001
    endloop
  endfacet
  facet normal 5.028115e-001 -3.710940e-001 7.806855e-001
    outer loop
      vertex 1.289280e+001 -1.416720e+002 -3.670350e+001
      vertex 3.971950e+001 -8.896380e+001 -2.892710e+001
      vertex 1.666050e+001 -9.361870e+001 -1.628830e+001
    endloop
  endfacet
  facet normal 2.837291e-001 -9.436994e-001 1.700862e-001
    outer loop
      vertex 3.971950e+001 -8.896380e+001 -2.892710e+001
      vertex 4.077500e+001 -8.527640e+001 -1.022880e+001
      vertex 1.666050e+001 -9.361870e+001 -1.628830e+001
    endloop
  endfacet
  facet normal 0.000000e+000 -7.997366e-001 6.003511e-001
    outer loop
      vertex 1.116910e+001 -9.937760e+001 -7.003720e+000
      vertex 1.259600e+001 -8.874100e+001 7.165460e+000
      vertex -1.259600e+001 -8.874100e+001 7.165460e+000
    endloop
  endfacet
  facet normal 0.000000e+000 -7.997366e-001 6.003510e-001
    outer loop
      vertex -1.259600e+001 -8.874100e+001 7.165460e+000
      vertex -1.116910e+001 -9.937760e+001 -7.003720e+000
      vertex 1.116910e+001 -9.937760e+001 -7.003720e+000
    endloop
  endfacet
  facet normal 2.924015e-001 6.107599e-001 7.358490e-001
    outer loop
      vertex 3.318070e+001 -2.531860e+001 1.018520e+002
      vertex 9.780450e+001 -7.397880e+001 1.165610e+002
      vertex 7.023650e+001 3.947510e+000 6.283620e+001
    endloop
  endfacet
  facet normal 5.214075e-001 6.016417e-001 6.051128e-001
    outer loop
      vertex 9.780450e+001 -7.397880e+001 1.165610e+002
      vertex 1.140250e+002 -5.898180e+001 8.767330e+001
      vertex 7.023650e+001 3.947510e+000 6.283620e+001
    endloop
  endfacet
  facet normal 1.000000e+000 0.000000e+000 0.000000e+000
    outer loop
      vertex 7.023650e+001 3.947510e+000 6.283620e+001
      vertex 9.780450e+001 -7.397880e+001 1.165610e+002
      vertex 9.780450e+001 -7.397880e+001 1.165610e+002
    endloop
  endfacet
  facet normal 6.043949e-001 7.176195e-001 3.460188e-001
    outer loop
      vertex 7.023650e+001 3.947510e+000 6.283620e+001
      vertex 4.726340e+001 2.741480e+001 5.429400e+001
      vertex 2.873020e+001 2.497260e+001 9.173110e+001
    endloop
  endfacet
  facet normal 6.273537e-001 2.066176e-001 7.508239e-001
    outer loop
      vertex 2.873020e+001 2.497260e+001 9.173110e+001
      vertex 3.318070e+001 -2.531860e+001 1.018520e+002
      vertex 7.023650e+001 3.947510e+000 6.283620e+001
    endloop
  endfacet
  facet normal 6.928449e-001 7.142674e-001 9.893519e-002
    outer loop
      vertex 6.916760e+001 1.277570e+001 6.586190e+000
      vertex 4.726340e+001 2.741480e+001 5.429400e+001
      vertex 7.023650e+001 3.947510e+000 6.283620e+001
    endloop
  endfacet
  facet normal 8.734876e-001 4.832285e-001 5.924196e-002
    outer loop
      vertex 7.023650e+001 3.947510e+000 6.283620e+001
      vertex 1.012166e+002 -4.630820e+001 1.598224e+001
      vertex 6.916760e+001 1.277570e+001 6.586190e+000
    endloop
  endfacet
  facet normal -3.619235e-001 -2.550859e-002 -9.318587e-001
    outer loop
      vertex 3.824860e+001 -1.777620e+001 -6.627560e+001
      vertex 1.092840e+002 -2.782430e+001 -9.358990e+001
      vertex 4.746250e+001 -6.336970e+001 -6.860610e+001
    endloop
  endfacet
  facet normal -5.227101e-001 -6.217354e-002 -8.502403e-001
    outer loop
      vertex 4.746250e+001 -6.336970e+001 -6.860610e+001
      vertex 3.824860e+001 -3.890990e+001 -6.473020e+001
      vertex 3.824860e+001 -1.777620e+001 -6.627560e+001
    endloop
  endfacet
  facet normal 1.717917e-001 9.813944e-001 8.574796e-002
    outer loop
      vertex 3.824860e+001 -1.777620e+001 -6.627560e+001
      vertex 1.221180e+002 -3.502500e+001 -3.688940e+001
      vertex 1.092840e+002 -2.782430e+001 -9.358990e+001
    endloop
  endfacet
  facet normal 1.106134e-001 9.621511e-001 2.490583e-001
    outer loop
      vertex 1.221180e+002 -3.502500e+001 -3.688940e+001
      vertex 3.824860e+001 -1.777620e+001 -6.627560e+001
      vertex 1.012166e+002 -4.630820e+001 1.598224e+001
    endloop
  endfacet
  facet normal 6.503053e-001 6.660326e-001 3.653814e-001
    outer loop
      vertex 2.873020e+001 2.497260e+001 9.173110e+001
      vertex 4.726340e+001 2.741480e+001 5.429400e+001
      vertex 2.873020e+001 4.835960e+001 4.910030e+001
    endloop
  endfacet
  facet normal 6.811802e-001 7.265877e-001 8.979915e-002
    outer loop
      vertex 4.726340e+001 2.741480e+001 5.429400e+001
      vertex 6.916760e+001 1.277570e+001 6.586190e+000
      vertex 3.190300e+001 4.782200e+001 5.692030e+000
    endloop
  endfacet
  facet normal 7.424267e-001 6.683469e-001 4.598817e-002
    outer loop
      vertex 3.190300e+001 4.782200e+001 5.692030e+000
      vertex 2.873020e+001 4.835960e+001 4.910030e+001
      vertex 4.726340e+001 2.741480e+001 5.429400e+001
    endloop
  endfacet
  facet normal 6.153309e-001 6.426322e-001 -4.564993e-001
    outer loop
      vertex 3.507580e+001 1.628090e+001 -3.443290e+001
      vertex 3.190300e+001 4.782200e+001 5.692030e+000
      vertex 6.916760e+001 1.277570e+001 6.586190e+000
    endloop
  endfacet
  facet normal 6.695833e-001 5.395881e-001 -5.103949e-001
    outer loop
      vertex 6.916760e+001 1.277570e+001 6.586190e+000
      vertex 3.824860e+001 -1.777620e+001 -6.627560e+001
      vertex 3.507580e+001 1.628090e+001 -3.443290e+001
    endloop
  endfacet
  facet normal 7.976705e-001 3.551679e-001 -4.874192e-001
    outer loop
      vertex 3.824860e+001 -1.777620e+001 -6.627560e+001
      vertex 6.916760e+001 1.277570e+001 6.586190e+000
      vertex 1.012166e+002 -4.630820e+001 1.598224e+001
    endloop
  endfacet
  facet normal 7.261258e-001 4.924490e-001 4.798284e-001
    outer loop
      vertex 1.152841e+002 -4.868409e+001 4.868148e+001
      vertex 7.023650e+001 3.947510e+000 6.283620e+001
      vertex 1.110246e+002 -4.622588e+001 5.260458e+001
    endloop
  endfacet
  facet normal 6.196185e-001 6.821948e-001 -3.881792e-001
    outer loop
      vertex 1.134846e+002 -4.912148e+001 3.860495e+001
      vertex 1.068814e+002 -4.691331e+001 3.194553e+001
      vertex 7.023650e+001 3.947510e+000 6.283620e+001
    endloop
  endfacet
  facet normal 6.671382e-001 2.856088e-002 7.443863e-001
    outer loop
      vertex 1.108428e+002 -4.917617e+001 2.848207e+001
      vertex 7.023650e+001 3.947510e+000 6.283620e+001
      vertex 1.068814e+002 -4.691331e+001 3.194553e+001
    endloop
  endfacet
  facet normal 6.354330e-001 6.985195e-001 -3.290827e-001
    outer loop
      vertex 1.108428e+002 -4.917617e+001 2.848207e+001
      vertex 1.012166e+002 -4.630820e+001 1.598224e+001
      vertex 7.023650e+001 3.947510e+000 6.283620e+001
    endloop
  endfacet
  facet normal -4.161453e-001 -9.021896e-001 1.134777e-001
    outer loop
      vertex 1.012166e+002 -4.630820e+001 1.598224e+001
      vertex 1.108428e+002 -4.917617e+001 2.848207e+001
      vertex 1.068814e+002 -4.691331e+001 3.194553e+001
    endloop
  endfacet
  facet normal -4.071238e-001 -9.067122e-001 1.101048e-001
    outer loop
      vertex 1.068814e+002 -4.691331e+001 3.194553e+001
      vertex 7.211330e+001 -3.087140e+001 3.549180e+001
      vertex 1.012166e+002 -4.630820e+001 1.598224e+001
    endloop
  endfacet
  facet normal 7.818528e-001 6.044098e-001 1.529538e-001
    outer loop
      vertex 1.140250e+002 -5.898180e+001 8.767330e+001
      vertex 1.110246e+002 -4.622588e+001 5.260458e+001
      vertex 7.023650e+001 3.947510e+000 6.283620e+001
    endloop
  endfacet
  facet normal -4.068432e-001 -9.065762e-001 1.122415e-001
    outer loop
      vertex 1.068814e+002 -4.691331e+001 3.194553e+001
      vertex 1.086633e+002 -4.631544e+001 4.323324e+001
      vertex 7.211330e+001 -3.087140e+001 3.549180e+001
    endloop
  endfacet
  facet normal 7.466921e-001 3.503328e-001 5.654360e-001
    outer loop
      vertex 7.023650e+001 3.947510e+000 6.283620e+001
      vertex 1.086633e+002 -4.631544e+001 4.323324e+001
      vertex 1.134846e+002 -4.912148e+001 3.860495e+001
    endloop
  endfacet
  facet normal 6.095862e-001 6.454990e-001 -4.601476e-001
    outer loop
      vertex 7.023650e+001 3.947510e+000 6.283620e+001
      vertex 1.152841e+002 -4.868409e+001 4.868148e+001
      vertex 1.086633e+002 -4.631544e+001 4.323324e+001
    endloop
  endfacet
  facet normal -4.161460e-001 -9.021891e-001 1.134778e-001
    outer loop
      vertex 1.152841e+002 -4.868409e+001 4.868148e+001
      vertex 1.110246e+002 -4.622588e+001 5.260458e+001
      vertex 1.086633e+002 -4.631544e+001 4.323324e+001
    endloop
  endfacet
  facet normal -4.066952e-001 -9.067783e-001 1.111404e-001
    outer loop
      vertex 7.211330e+001 -3.087140e+001 3.549180e+001
      vertex 1.086633e+002 -4.631544e+001 4.323324e+001
      vertex 1.110246e+002 -4.622588e+001 5.260458e+001
    endloop
  endfacet
  facet normal 0.000000e+000 8.630352e-002 -9.962689e-001
    outer loop
      vertex 1.912430e+001 -4.942005e+001 -6.901680e+001
      vertex -1.912430e+001 -4.942005e+001 -6.901680e+001
      vertex -3.824860e+001 -1.777620e+001 -6.627560e+001
    endloop
  endfacet
  facet normal 0.000000e+000 8.630352e-002 -9.962689e-001
    outer loop
      vertex -3.824860e+001 -1.777620e+001 -6.627560e+001
      vertex 3.824860e+001 -1.777620e+001 -6.627560e+001
      vertex 1.912430e+001 -4.942005e+001 -6.901680e+001
    endloop
  endfacet
  facet normal 1.285747e-001 -8.654664e-001 -4.841865e-001
    outer loop
      vertex -1.110246e+002 -4.622588e+001 5.260458e+001
      vertex -7.211330e+001 -3.087140e+001 3.549180e+001
      vertex -6.619200e+001 -5.539430e+001 8.089800e+001
    endloop
  endfacet
  facet normal 2.234389e-002 -9.401399e-001 -3.400555e-001
    outer loop
      vertex -6.619200e+001 -5.539430e+001 8.089800e+001
      vertex -1.140250e+002 -5.898180e+001 8.767330e+001
      vertex -1.110246e+002 -4.622588e+001 5.260458e+001
    endloop
  endfacet
  facet normal 1.000000e+000 0.000000e+000 0.000000e+000
    outer loop
      vertex -6.619200e+001 -5.539430e+001 8.089800e+001
      vertex -9.780450e+001 -7.397880e+001 1.165610e+002
      vertex -9.780450e+001 -7.397880e+001 1.165610e+002
    endloop
  endfacet
  facet normal 1.204768e-003 -8.872486e-001 -4.612901e-001
    outer loop
      vertex -9.780450e+001 -7.397880e+001 1.165610e+002
      vertex -1.140250e+002 -5.898180e+001 8.767330e+001
      vertex -6.619200e+001 -5.539430e+001 8.089800e+001
    endloop
  endfacet
  facet normal -1.845070e-001 -9.395960e-001 -2.882995e-001
    outer loop
      vertex -5.260890e+001 -4.255610e+001 3.036410e+001
      vertex -1.676230e+001 -5.807820e+001 5.801090e+001
      vertex -6.619200e+001 -5.539430e+001 8.089800e+001
    endloop
  endfacet
  facet normal -5.474646e-001 -7.640796e-001 -3.412694e-001
    outer loop
      vertex -6.619200e+001 -5.539430e+001 8.089800e+001
      vertex -7.211330e+001 -3.087140e+001 3.549180e+001
      vertex -5.260890e+001 -4.255610e+001 3.036410e+001
    endloop
  endfacet
  facet normal 4.161456e-001 -9.021894e-001 1.134776e-001
    outer loop
      vertex -1.068814e+002 -4.691331e+001 3.194553e+001
      vertex -1.086633e+002 -4.631544e+001 4.323324e+001
      vertex -1.134846e+002 -4.912148e+001 3.860495e+001
    endloop
  endfacet
  facet normal -1.761250e-001 -6.270033e-001 7.588457e-001
    outer loop
      vertex -1.012166e+002 -4.630820e+001 1.598224e+001
      vertex -5.260890e+001 -4.255610e+001 3.036410e+001
      vertex -7.211330e+001 -3.087140e+001 3.549180e+001
    endloop
  endfacet
  facet normal -2.321428e-001 -9.135737e-001 3.339052e-001
    outer loop
      vertex -1.666050e+001 -9.361870e+001 -1.628830e+001
      vertex -2.392690e+001 -8.673650e+001 -2.510290e+000
      vertex -4.077500e+001 -8.527640e+001 -1.022880e+001
    endloop
  endfacet
  facet normal -8.928740e-001 -2.680859e-001 3.618093e-001
    outer loop
      vertex -1.116910e+001 -9.937760e+001 -7.003720e+000
      vertex -1.666050e+001 -9.361870e+001 -1.628830e+001
      vertex -9.569200e+000 -1.416720e+002 -3.439390e+001
    endloop
  endfacet
  facet normal -8.663456e-001 -4.373958e-001 2.411020e-001
    outer loop
      vertex -1.666050e+001 -9.361870e+001 -1.628830e+001
      vertex -1.116910e+001 -9.937760e+001 -7.003720e+000
      vertex -1.259600e+001 -8.874100e+001 7.165460e+000
    endloop
  endfacet
  facet normal -2.243112e-001 -9.584294e-001 1.763451e-001
    outer loop
      vertex -6.118090e+001 -7.699680e+001 8.814170e+000
      vertex -3.971950e+001 -8.896380e+001 -2.892710e+001
      vertex -4.077500e+001 -8.527640e+001 -1.022880e+001
    endloop
  endfacet
  facet normal -7.879251e-001 -5.273969e-001 -3.178466e-001
    outer loop
      vertex -1.379620e+001 -1.320570e+002 -6.857570e+001
      vertex -1.289170e+001 -1.447410e+002 -4.977160e+001
      vertex -1.484460e+001 -1.401130e+002 -5.260960e+001
    endloop
  endfacet
  facet normal -9.698057e-001 -1.861222e-001 -1.575929e-001
    outer loop
      vertex -1.484460e+001 -1.401130e+002 -5.260960e+001
      vertex -1.526740e+001 -1.296880e+002 -6.232000e+001
      vertex -1.379620e+001 -1.320570e+002 -6.857570e+001
    endloop
  endfacet
  facet normal -7.537431e-001 -4.142700e-001 -5.101487e-001
    outer loop
      vertex -1.526740e+001 -1.296880e+002 -6.232000e+001
      vertex -4.746250e+001 -6.336970e+001 -6.860610e+001
      vertex -3.560420e+001 -8.106390e+001 -7.175800e+001
    endloop
  endfacet
  facet normal -9.159856e-001 -3.958246e-001 -6.552224e-002
    outer loop
      vertex -3.560420e+001 -8.106390e+001 -7.175800e+001
      vertex -1.379620e+001 -1.320570e+002 -6.857570e+001
      vertex -1.526740e+001 -1.296880e+002 -6.232000e+001
    endloop
  endfacet
  facet normal -1.853552e-002 1.632879e-001 -9.864043e-001
    outer loop
      vertex -3.560420e+001 -8.106390e+001 -7.175800e+001
      vertex -4.746250e+001 -6.336970e+001 -6.860610e+001
      vertex -3.824860e+001 -3.890990e+001 -6.473020e+001
    endloop
  endfacet
  facet normal 0.000000e+000 8.630350e-002 -9.962689e-001
    outer loop
      vertex -1.912430e+001 -4.942005e+001 -6.901680e+001
      vertex -1.780210e+001 -8.106390e+001 -7.175800e+001
      vertex -3.560420e+001 -8.106390e+001 -7.175800e+001
    endloop
  endfacet
  facet normal 0.000000e+000 8.630352e-002 -9.962689e-001
    outer loop
      vertex -3.824860e+001 -1.777620e+001 -6.627560e+001
      vertex -1.912430e+001 -4.942005e+001 -6.901680e+001
      vertex -3.560420e+001 -8.106390e+001 -7.175800e+001
    endloop
  endfacet
  facet normal -9.672894e-001 -1.850051e-002 -2.529996e-001
    outer loop
      vertex -3.824860e+001 -3.890990e+001 -6.473020e+001
      vertex -3.824860e+001 -1.777620e+001 -6.627560e+001
      vertex -3.560420e+001 -8.106390e+001 -7.175800e+001
    endloop
  endfacet
  facet normal -7.981061e-001 -4.276790e-001 -4.244022e-001
    outer loop
      vertex -1.484460e+001 -1.401130e+002 -5.260960e+001
      vertex -4.746250e+001 -6.336970e+001 -6.860610e+001
      vertex -1.526740e+001 -1.296880e+002 -6.232000e+001
    endloop
  endfacet
  facet normal -9.232662e-001 -3.764890e-001 7.639147e-002
    outer loop
      vertex -4.746250e+001 -6.336970e+001 -6.860610e+001
      vertex -1.484460e+001 -1.401130e+002 -5.260960e+001
      vertex -1.289280e+001 -1.416720e+002 -3.670350e+001
    endloop
  endfacet
  facet normal -8.923267e-001 -4.381574e-001 -1.084946e-001
    outer loop
      vertex -1.289280e+001 -1.416720e+002 -3.670350e+001
      vertex -3.971950e+001 -8.896380e+001 -2.892710e+001
      vertex -4.746250e+001 -6.336970e+001 -6.860610e+001
    endloop
  endfacet
  facet normal -9.453972e-002 -5.110408e-001 8.543416e-001
    outer loop
      vertex -5.260890e+001 -4.255610e+001 3.036410e+001
      vertex -6.118090e+001 -7.699680e+001 8.814170e+000
      vertex -1.259600e+001 -8.874100e+001 7.165460e+000
    endloop
  endfacet
  facet normal -5.975352e-001 -7.073593e-001 3.776170e-001
    outer loop
      vertex -1.259600e+001 -8.874100e+001 7.165460e+000
      vertex -1.676230e+001 -5.807820e+001 5.801090e+001
      vertex -5.260890e+001 -4.255610e+001 3.036410e+001
    endloop
  endfacet
  facet normal -4.883542e-001 -6.933966e-001 -5.298221e-001
    outer loop
      vertex -4.746250e+001 -6.336970e+001 -6.860610e+001
      vertex -6.776680e+001 -7.841780e+001 -3.019700e+001
      vertex -1.221180e+002 -3.502500e+001 -3.688940e+001
    endloop
  endfacet
  facet normal -4.231161e-001 -8.819316e-001 -2.077724e-001
    outer loop
      vertex -1.221180e+002 -3.502500e+001 -3.688940e+001
      vertex -1.092840e+002 -2.782430e+001 -9.358990e+001
      vertex -4.746250e+001 -6.336970e+001 -6.860610e+001
    endloop
  endfacet
  facet normal 5.568134e-001 -5.518104e-001 6.208576e-001
    outer loop
      vertex -9.780450e+001 -7.397880e+001 1.165610e+002
      vertex -1.676230e+001 -5.807820e+001 5.801090e+001
      vertex -3.318070e+001 -2.531860e+001 1.018520e+002
    endloop
  endfacet
  facet normal 1.000000e+000 0.000000e+000 0.000000e+000
    outer loop
      vertex -3.318070e+001 -2.531860e+001 1.018520e+002
      vertex -9.780450e+001 -7.397880e+001 1.165610e+002
      vertex -9.780450e+001 -7.397880e+001 1.165610e+002
    endloop
  endfacet
  facet normal -2.900649e-001 -8.290077e-001 -4.781303e-001
    outer loop
      vertex -4.746250e+001 -6.336970e+001 -6.860610e+001
      vertex -3.971950e+001 -8.896380e+001 -2.892710e+001
      vertex -6.776680e+001 -7.841780e+001 -3.019700e+001
    endloop
  endfacet
  facet normal -2.257325e-001 -9.583787e-001 1.748001e-001
    outer loop
      vertex -1.259600e+001 -8.874100e+001 7.165460e+000
      vertex -6.118090e+001 -7.699680e+001 8.814170e+000
      vertex -4.077500e+001 -8.527640e+001 -1.022880e+001
    endloop
  endfacet
  facet normal 1.734052e-002 -9.748333e-001 -2.222599e-001
    outer loop
      vertex -4.077500e+001 -8.527640e+001 -1.022880e+001
      vertex -2.392690e+001 -8.673650e+001 -2.510290e+000
      vertex -1.259600e+001 -8.874100e+001 7.165460e+000
    endloop
  endfacet
  facet normal -3.719116e-001 -8.938714e-001 2.503510e-001
    outer loop
      vertex -2.392690e+001 -8.673650e+001 -2.510290e+000
      vertex -1.666050e+001 -9.361870e+001 -1.628830e+001
      vertex -1.259600e+001 -8.874100e+001 7.165460e+000
    endloop
  endfacet
  facet normal -9.351192e-001 -3.449660e-001 8.093538e-002
    outer loop
      vertex -1.289280e+001 -1.416720e+002 -3.670350e+001
      vertex -1.484460e+001 -1.401130e+002 -5.260960e+001
      vertex -1.289170e+001 -1.447410e+002 -4.977160e+001
    endloop
  endfacet
  facet normal -9.861451e-001 -1.615095e-001 3.784693e-002
    outer loop
      vertex -1.289170e+001 -1.447410e+002 -4.977160e+001
      vertex -1.145650e+001 -1.507220e+002 -3.789940e+001
      vertex -1.289280e+001 -1.416720e+002 -3.670350e+001
    endloop
  endfacet
  facet normal -7.324072e-001 -2.021533e-001 6.501644e-001
    outer loop
      vertex -1.289280e+001 -1.416720e+002 -3.670350e+001
      vertex -1.145650e+001 -1.507220e+002 -3.789940e+001
      vertex -9.406250e+000 -1.507220e+002 -3.558980e+001
    endloop
  endfacet
  facet normal -5.666685e-001 -1.179607e-001 8.154582e-001
    outer loop
      vertex -9.406250e+000 -1.507220e+002 -3.558980e+001
      vertex -9.569200e+000 -1.416720e+002 -3.439390e+001
      vertex -1.289280e+001 -1.416720e+002 -3.670350e+001
    endloop
  endfacet
  facet normal 0.000000e+000 -1.000000e+000 0.000000e+000
    outer loop
      vertex -9.406250e+000 -1.507220e+002 -3.558980e+001
      vertex -1.145650e+001 -1.507220e+002 -3.789940e+001
      vertex 1.145650e+001 -1.507220e+002 -3.789940e+001
    endloop
  endfacet
  facet normal 0.000000e+000 -1.000000e+000 0.000000e+000
    outer loop
      vertex 1.145650e+001 -1.507220e+002 -3.789940e+001
      vertex 9.406250e+000 -1.507220e+002 -3.558980e+001
      vertex -9.406250e+000 -1.507220e+002 -3.558980e+001
    endloop
  endfacet
  facet normal 0.000000e+000 -8.010619e-001 5.985815e-001
    outer loop
      vertex -1.676230e+001 -5.807820e+001 5.801090e+001
      vertex 1.676230e+001 -5.807820e+001 5.801090e+001
      vertex 3.318070e+001 -2.531860e+001 1.018520e+002
    endloop
  endfacet
  facet normal 0.000000e+000 -8.010619e-001 5.985815e-001
    outer loop
      vertex 3.318070e+001 -2.531860e+001 1.018520e+002
      vertex -3.318070e+001 -2.531860e+001 1.018520e+002
      vertex -1.676230e+001 -5.807820e+001 5.801090e+001
    endloop
  endfacet
  facet normal -5.994504e-001 -7.976230e-001 6.675824e-002
    outer loop
      vertex -6.118090e+001 -7.699680e+001 8.814170e+000
      vertex -1.012166e+002 -4.630820e+001 1.598224e+001
      vertex -1.221180e+002 -3.502500e+001 -3.688940e+001
    endloop
  endfacet
  facet normal -6.283194e-001 -7.663303e-001 1.339873e-001
    outer loop
      vertex -6.118090e+001 -7.699680e+001 8.814170e+000
      vertex -1.221180e+002 -3.502500e+001 -3.688940e+001
      vertex -6.776680e+001 -7.841780e+001 -3.019700e+001
    endloop
  endfacet
  facet normal -3.541158e-001 -9.304982e-001 9.367590e-002
    outer loop
      vertex -6.776680e+001 -7.841780e+001 -3.019700e+001
      vertex -3.971950e+001 -8.896380e+001 -2.892710e+001
      vertex -6.118090e+001 -7.699680e+001 8.814170e+000
    endloop
  endfacet
  facet normal -2.148360e-001 -4.790621e-001 8.510846e-001
    outer loop
      vertex -1.012166e+002 -4.630820e+001 1.598224e+001
      vertex -6.118090e+001 -7.699680e+001 8.814170e+000
      vertex -5.260890e+001 -4.255610e+001 3.036410e+001
    endloop
  endfacet
  facet normal -5.028115e-001 -3.710940e-001 7.806855e-001
    outer loop
      vertex -1.666050e+001 -9.361870e+001 -1.628830e+001
      vertex -3.971950e+001 -8.896380e+001 -2.892710e+001
      vertex -1.289280e+001 -1.416720e+002 -3.670350e+001
    endloop
  endfacet
  facet normal -5.309975e-001 -3.662689e-001 7.641262e-001
    outer loop
      vertex -1.289280e+001 -1.416720e+002 -3.670350e+001
      vertex -9.569200e+000 -1.416720e+002 -3.439390e+001
      vertex -1.666050e+001 -9.361870e+001 -1.628830e+001
    endloop
  endfacet
  facet normal -2.837291e-001 -9.436994e-001 1.700862e-001
    outer loop
      vertex -3.971950e+001 -8.896380e+001 -2.892710e+001
      vertex -1.666050e+001 -9.361870e+001 -1.628830e+001
      vertex -4.077500e+001 -8.527640e+001 -1.022880e+001
    endloop
  endfacet
  facet normal -2.924015e-001 6.107599e-001 7.358490e-001
    outer loop
      vertex -3.318070e+001 -2.531860e+001 1.018520e+002
      vertex -7.023650e+001 3.947510e+000 6.283620e+001
      vertex -9.780450e+001 -7.397880e+001 1.165610e+002
    endloop
  endfacet
  facet normal -5.214075e-001 6.016417e-001 6.051128e-001
    outer loop
      vertex -9.780450e+001 -7.397880e+001 1.165610e+002
      vertex -7.023650e+001 3.947510e+000 6.283620e+001
      vertex -1.140250e+002 -5.898180e+001 8.767330e+001
    endloop
  endfacet
  facet normal 0.000000e+000 1.972904e-001 9.803451e-001
    outer loop
      vertex -2.873020e+001 2.497260e+001 9.173110e+001
      vertex -3.318070e+001 -2.531860e+001 1.018520e+002
      vertex 3.318070e+001 -2.531860e+001 1.018520e+002
    endloop
  endfacet
  facet normal 0.000000e+000 1.972904e-001 9.803451e-001
    outer loop
      vertex 3.318070e+001 -2.531860e+001 1.018520e+002
      vertex 2.873020e+001 2.497260e+001 9.173110e+001
      vertex -2.873020e+001 2.497260e+001 9.173110e+001
    endloop
  endfacet
  facet normal -6.273537e-001 2.066176e-001 7.508239e-001
    outer loop
      vertex -7.023650e+001 3.947510e+000 6.283620e+001
      vertex -3.318070e+001 -2.531860e+001 1.018520e+002
      vertex -2.873020e+001 2.497260e+001 9.173110e+001
    endloop
  endfacet
  facet normal -6.043949e-001 7.176195e-001 3.460188e-001
    outer loop
      vertex -2.873020e+001 2.497260e+001 9.173110e+001
      vertex -4.726340e+001 2.741480e+001 5.429400e+001
      vertex -7.023650e+001 3.947510e+000 6.283620e+001
    endloop
  endfacet
  facet normal -8.734876e-001 4.832285e-001 5.924197e-002
    outer loop
      vertex -6.916760e+001 1.277570e+001 6.586190e+000
      vertex -1.012166e+002 -4.630820e+001 1.598224e+001
      vertex -7.023650e+001 3.947510e+000 6.283620e+001
    endloop
  endfacet
  facet normal -6.928448e-001 7.142674e-001 9.893519e-002
    outer loop
      vertex -7.023650e+001 3.947510e+000 6.283620e+001
      vertex -4.726340e+001 2.741480e+001 5.429400e+001
      vertex -6.916760e+001 1.277570e+001 6.586190e+000
    endloop
  endfacet
  facet normal 0.000000e+000 8.767360e-001 4.809720e-001
    outer loop
      vertex 2.873020e+001 2.497260e+001 9.173110e+001
      vertex 2.873020e+001 4.835960e+001 4.910030e+001
      vertex -2.873020e+001 4.835960e+001 4.910030e+001
    endloop
  endfacet
  facet normal 0.000000e+000 8.767360e-001 4.809720e-001
    outer loop
      vertex -2.873020e+001 4.835960e+001 4.910030e+001
      vertex -2.873020e+001 2.497260e+001 9.173110e+001
      vertex 2.873020e+001 2.497260e+001 9.173110e+001
    endloop
  endfacet
  facet normal 5.227101e-001 -6.217354e-002 -8.502403e-001
    outer loop
      vertex -3.824860e+001 -1.777620e+001 -6.627560e+001
      vertex -3.824860e+001 -3.890990e+001 -6.473020e+001
      vertex -4.746250e+001 -6.336970e+001 -6.860610e+001
    endloop
  endfacet
  facet normal 3.619235e-001 -2.550859e-002 -9.318587e-001
    outer loop
      vertex -4.746250e+001 -6.336970e+001 -6.860610e+001
      vertex -1.092840e+002 -2.782430e+001 -9.358990e+001
      vertex -3.824860e+001 -1.777620e+001 -6.627560e+001
    endloop
  endfacet
  facet normal -1.717917e-001 9.813944e-001 8.574796e-002
    outer loop
      vertex -3.824860e+001 -1.777620e+001 -6.627560e+001
      vertex -1.092840e+002 -2.782430e+001 -9.358990e+001
      vertex -1.221180e+002 -3.502500e+001 -3.688940e+001
    endloop
  endfacet
  facet normal -1.106134e-001 9.621511e-001 2.490583e-001
    outer loop
      vertex -1.221180e+002 -3.502500e+001 -3.688940e+001
      vertex -1.012166e+002 -4.630820e+001 1.598224e+001
      vertex -3.824860e+001 -1.777620e+001 -6.627560e+001
    endloop
  endfacet
  facet normal -6.503053e-001 6.660326e-001 3.653814e-001
    outer loop
      vertex -2.873020e+001 2.497260e+001 9.173110e+001
      vertex -2.873020e+001 4.835960e+001 4.910030e+001
      vertex -4.726340e+001 2.741480e+001 5.429400e+001
    endloop
  endfacet
  facet normal -7.424267e-001 6.683469e-001 4.598817e-002
    outer loop
      vertex -4.726340e+001 2.741480e+001 5.429400e+001
      vertex -2.873020e+001 4.835960e+001 4.910030e+001
      vertex -3.190300e+001 4.782200e+001 5.692030e+000
    endloop
  endfacet
  facet normal -6.811803e-001 7.265876e-001 8.979915e-002
    outer loop
      vertex -3.190300e+001 4.782200e+001 5.692030e+000
      vertex -6.916760e+001 1.277570e+001 6.586190e+000
      vertex -4.726340e+001 2.741480e+001 5.429400e+001
    endloop
  endfacet
  facet normal -6.695833e-001 5.395880e-001 -5.103949e-001
    outer loop
      vertex -3.507580e+001 1.628090e+001 -3.443290e+001
      vertex -3.824860e+001 -1.777620e+001 -6.627560e+001
      vertex -6.916760e+001 1.277570e+001 6.586190e+000
    endloop
  endfacet
  facet normal -6.153310e-001 6.426322e-001 -4.564993e-001
    outer loop
      vertex -6.916760e+001 1.277570e+001 6.586190e+000
      vertex -3.190300e+001 4.782200e+001 5.692030e+000
      vertex -3.507580e+001 1.628090e+001 -3.443290e+001
    endloop
  endfacet
  facet normal -7.976705e-001 3.551679e-001 -4.874192e-001
    outer loop
      vertex -3.824860e+001 -1.777620e+001 -6.627560e+001
      vertex -1.012166e+002 -4.630820e+001 1.598224e+001
      vertex -6.916760e+001 1.277570e+001 6.586190e+000
    endloop
  endfacet
  facet normal 0.000000e+000 -6.228539e-002 -9.980584e-001
    outer loop
      vertex 1.379620e+001 -1.320570e+002 -6.857570e+001
      vertex -1.379620e+001 -1.320570e+002 -6.857570e+001
      vertex -1.780210e+001 -8.106390e+001 -7.175800e+001
    endloop
  endfacet
  facet normal -0.000000e+000 -6.228539e-002 -9.980584e-001
    outer loop
      vertex -1.780210e+001 -8.106390e+001 -7.175800e+001
      vertex 1.780210e+001 -8.106390e+001 -7.175800e+001
      vertex 1.379620e+001 -1.320570e+002 -6.857570e+001
    endloop
  endfacet
  facet normal -7.261258e-001 4.924490e-001 4.798284e-001
    outer loop
      vertex -1.152841e+002 -4.868409e+001 4.868148e+001
      vertex -1.110246e+002 -4.622588e+001 5.260458e+001
      vertex -7.023650e+001 3.947510e+000 6.283620e+001
    endloop
  endfacet
  facet normal -6.196185e-001 6.821948e-001 -3.881792e-001
    outer loop
      vertex -1.134846e+002 -4.912148e+001 3.860495e+001
      vertex -7.023650e+001 3.947510e+000 6.283620e+001
      vertex -1.068814e+002 -4.691331e+001 3.194553e+001
    endloop
  endfacet
  facet normal -6.671382e-001 2.856088e-002 7.443863e-001
    outer loop
      vertex -1.108428e+002 -4.917617e+001 2.848207e+001
      vertex -1.068814e+002 -4.691331e+001 3.194553e+001
      vertex -7.023650e+001 3.947510e+000 6.283620e+001
    endloop
  endfacet
  facet normal -6.354330e-001 6.985195e-001 -3.290827e-001
    outer loop
      vertex -1.108428e+002 -4.917617e+001 2.848207e+001
      vertex -7.023650e+001 3.947510e+000 6.283620e+001
      vertex -1.012166e+002 -4.630820e+001 1.598224e+001
    endloop
  endfacet
  facet normal 4.161453e-001 -9.021896e-001 1.134777e-001
    outer loop
      vertex -1.012166e+002 -4.630820e+001 1.598224e+001
      vertex -1.068814e+002 -4.691331e+001 3.194553e+001
      vertex -1.108428e+002 -4.917617e+001 2.848207e+001
    endloop
  endfacet
  facet normal 4.071238e-001 -9.067122e-001 1.101048e-001
    outer loop
      vertex -1.068814e+002 -4.691331e+001 3.194553e+001
      vertex -1.012166e+002 -4.630820e+001 1.598224e+001
      vertex -7.211330e+001 -3.087140e+001 3.549180e+001
    endloop
  endfacet
  facet normal -7.818528e-001 6.044098e-001 1.529538e-001
    outer loop
      vertex -1.140250e+002 -5.898180e+001 8.767330e+001
      vertex -7.023650e+001 3.947510e+000 6.283620e+001
      vertex -1.110246e+002 -4.622588e+001 5.260458e+001
    endloop
  endfacet
  facet normal 4.068432e-001 -9.065762e-001 1.122415e-001
    outer loop
      vertex -1.068814e+002 -4.691331e+001 3.194553e+001
      vertex -7.211330e+001 -3.087140e+001 3.549180e+001
      vertex -1.086633e+002 -4.631544e+001 4.323324e+001
    endloop
  endfacet
  facet normal -7.466921e-001 3.503328e-001 5.654360e-001
    outer loop
      vertex -7.023650e+001 3.947510e+000 6.283620e+001
      vertex -1.134846e+002 -4.912148e+001 3.860495e+001
      vertex -1.086633e+002 -4.631544e+001 4.323324e+001
    endloop
  endfacet
  facet normal -6.095862e-001 6.454990e-001 -4.601476e-001
    outer loop
      vertex -7.023650e+001 3.947510e+000 6.283620e+001
      vertex -1.086633e+002 -4.631544e+001 4.323324e+001
      vertex -1.152841e+002 -4.868409e+001 4.868148e+001
    endloop
  endfacet
  facet normal 4.161460e-001 -9.021891e-001 1.134778e-001
    outer loop
      vertex -1.152841e+002 -4.868409e+001 4.868148e+001
      vertex -1.086633e+002 -4.631544e+001 4.323324e+001
      vertex -1.110246e+002 -4.622588e+001 5.260458e+001
    endloop
  endfacet
  facet normal 4.066952e-001 -9.067783e-001 1.111404e-001
    outer loop
      vertex -7.211330e+001 -3.087140e+001 3.549180e+001
      vertex -1.110246e+002 -4.622588e+001 5.260458e+001
      vertex -1.086633e+002 -4.631544e+001 4.323324e+001
    endloop
  endfacet
  facet normal 0.000000e+000 8.630352e-002 -9.962689e-001
    outer loop
      vertex -1.912430e+001 -4.942005e+001 -6.901680e+001
      vertex 1.912430e+001 -4.942005e+001 -6.901680e+001
      vertex 1.780210e+001 -8.106390e+001 -7.175800e+001
    endloop
  endfacet
  facet normal 0.000000e+000 8.630350e-002 -9.962689e-001
    outer loop
      vertex 1.780210e+001 -8.106390e+001 -7.175800e+001
      vertex -1.780210e+001 -8.106390e+001 -7.175800e+001
      vertex -1.912430e+001 -4.942005e+001 -6.901680e+001
    endloop
  endfacet
  facet normal 0.000000e+000 -5.435761e-001 8.393599e-001
    outer loop
      vertex 1.116910e+001 -9.937760e+001 -7.003720e+000
      vertex -1.116910e+001 -9.937760e+001 -7.003720e+000
      vertex -9.569200e+000 -1.416720e+002 -3.439390e+001
    endloop
  endfacet
  facet normal 0.000000e+000 -5.435761e-001 8.393599e-001
    outer loop
      vertex -9.569200e+000 -1.416720e+002 -3.439390e+001
      vertex 9.569200e+000 -1.416720e+002 -3.439390e+001
      vertex 1.116910e+001 -9.937760e+001 -7.003720e+000
    endloop
  endfacet
  facet normal 0.000000e+000 7.861816e-001 -6.179956e-001
    outer loop
      vertex 3.507580e+001 1.628090e+001 -3.443290e+001
      vertex -3.507580e+001 1.628090e+001 -3.443290e+001
      vertex -3.190300e+001 4.782200e+001 5.692030e+000
    endloop
  endfacet
  facet normal 0.000000e+000 7.861816e-001 -6.179956e-001
    outer loop
      vertex -3.190300e+001 4.782200e+001 5.692030e+000
      vertex 3.190300e+001 4.782200e+001 5.692030e+000
      vertex 3.507580e+001 1.628090e+001 -3.443290e+001
    endloop
  endfacet
  facet normal 0.000000e+000 -6.228539e-002 -9.980584e-001
    outer loop
      vertex -1.780210e+001 -8.106390e+001 -7.175800e+001
      vertex -1.379620e+001 -1.320570e+002 -6.857570e+001
      vertex -3.560420e+001 -8.106390e+001 -7.175800e+001
    endloop
  endfacet
  facet normal 0.000000e+000 -8.930720e-001 -4.499138e-001
    outer loop
      vertex 1.145650e+001 -1.507220e+002 -3.789940e+001
      vertex -1.145650e+001 -1.507220e+002 -3.789940e+001
      vertex -1.289170e+001 -1.447410e+002 -4.977160e+001
    endloop
  endfacet
  facet normal -0.000000e+000 -8.930720e-001 -4.499138e-001
    outer loop
      vertex -1.289170e+001 -1.447410e+002 -4.977160e+001
      vertex 1.289170e+001 -1.447410e+002 -4.977160e+001
      vertex 1.145650e+001 -1.507220e+002 -3.789940e+001
    endloop
  endfacet
  facet normal 0.000000e+000 -8.563351e-001 5.164205e-001
    outer loop
      vertex 1.676230e+001 -5.807820e+001 5.801090e+001
      vertex -1.676230e+001 -5.807820e+001 5.801090e+001
      vertex -1.259600e+001 -8.874100e+001 7.165460e+000
    endloop
  endfacet
  facet normal 0.000000e+000 -8.563351e-001 5.164205e-001
    outer loop
      vertex -1.259600e+001 -8.874100e+001 7.165460e+000
      vertex 1.259600e+001 -8.874100e+001 7.165460e+000
      vertex 1.676230e+001 -5.807820e+001 5.801090e+001
    endloop
  endfacet
  facet normal 0.000000e+000 9.999233e-001 -1.238382e-002
    outer loop
      vertex 3.190300e+001 4.782200e+001 5.692030e+000
      vertex -3.190300e+001 4.782200e+001 5.692030e+000
      vertex -2.873020e+001 4.835960e+001 4.910030e+001
    endloop
  endfacet
  facet normal 0.000000e+000 9.999233e-001 -1.238382e-002
    outer loop
      vertex -2.873020e+001 4.835960e+001 4.910030e+001
      vertex 2.873020e+001 4.835960e+001 4.910030e+001
      vertex 3.190300e+001 4.782200e+001 5.692030e+000
    endloop
  endfacet
  facet normal 0.000000e+000 6.829607e-001 -7.304551e-001
    outer loop
      vertex 3.507580e+001 1.628090e+001 -3.443290e+001
      vertex 3.824860e+001 -1.777620e+001 -6.627560e+001
      vertex -3.824860e+001 -1.777620e+001 -6.627560e+001
    endloop
  endfacet
  facet normal 0.000000e+000 6.829607e-001 -7.304551e-001
    outer loop
      vertex -3.824860e+001 -1.777620e+001 -6.627560e+001
      vertex -3.507580e+001 1.628090e+001 -3.443290e+001
      vertex 3.507580e+001 1.628090e+001 -3.443290e+001
    endloop
  endfacet
  facet normal -0.000000e+000 -6.228539e-002 -9.980584e-001
    outer loop
      vertex 1.780210e+001 -8.106390e+001 -7.175800e+001
      vertex 3.560420e+001 -8.106390e+001 -7.175800e+001
      vertex 1.379620e+001 -1.320570e+002 -6.857570e+001
    endloop
  endfacet
  facet normal -1.204764e-003 -8.872486e-001 -4.612901e-001
    outer loop
      vertex 6.619200e+001 -5.539430e+001 8.089800e+001
      vertex 1.140250e+002 -5.898180e+001 8.767330e+001
      vertex 9.780450e+001 -7.397880e+001 1.165610e+002
    endloop
  endfacet
  facet normal -3.392836e-001 -6.767243e-001 -6.533995e-001
    outer loop
      vertex -6.619200e+001 -5.539430e+001 8.089800e+001
      vertex -1.676230e+001 -5.807820e+001 5.801090e+001
      vertex -9.780450e+001 -7.397880e+001 1.165610e+002
    endloop
  endfacet
endsolid Object01
