# WaveFront *.obj file (generated by Cinema 4D)

mtllib ./fox2.mtl

v 11.086484 15.960325 2.778230
v 6.465275 14.255375 1.884510
v 9.594237 21.702961 4.818539
v 2.466232 14.250507 6.037715
v 6.464263 11.474986 3.628665
v 9.605342 11.448930 0.910938
v 2.231848 7.561300 8.109403
v 4.922223 8.225418 6.462612
v 2.730904 9.001883 8.231533
v 0.935710 4.316695 13.898631
v 1.826048 10.198276 8.967493
v 1.258694 0.478335 11.713494
v 1.255813 2.393267 14.061978
v 4.829895 2.599718 5.474004
v 4.015327 2.957312 0.703314
v 1.612633 3.610942 13.879456
v 9.587111 1.186988 -0.560606
v 11.053112 6.066408 1.231870
v 2.146133 17.257635 2.344184
v 0.566381 3.959442 14.725849
v 1.084190 3.280769 14.706674
v 5.171019 14.211750 -3.034384
v 2.092100 12.645106 -5.246524
v 1.663330 16.293732 -1.261715
v 7.224460 10.426618 -1.816326
v 2.345630 7.566810 -5.660416
v 1.060229 0.473318 3.893901
v 4.812980 10.198282 7.707912
v 4.829890 5.999207 8.547805
v -11.086484 15.960325 2.778230
v -6.465275 14.255375 1.884510
v -9.594237 21.702961 4.818539
v -2.466232 14.250507 6.037715
v -6.464263 11.474986 3.628665
v -9.605342 11.448930 0.910938
v -2.231848 7.561300 8.109403
v -4.922223 8.225418 6.462612
v -2.730904 9.001883 8.231533
v -0.935710 4.316695 13.898631
v -1.826048 10.198276 8.967493
v -1.258695 0.478335 11.713494
v -1.255813 2.393267 14.061978
v -4.829895 2.599718 5.474004
v -4.015327 2.957313 0.703314
v -1.612633 3.610942 13.879456
v -9.587111 1.186988 -0.560606
v -11.053112 6.066408 1.231870
v -2.146133 17.257635 2.344184
v -0.566381 3.959442 14.725849
v -1.084190 3.280769 14.706674
v -5.171019 14.211750 -3.034384
v -2.092100 12.645106 -5.246524
v -1.663330 16.293732 -1.261715
v -7.224460 10.426618 -1.816326
v -2.345630 7.566810 -5.660416
v -1.060229 0.473318 3.893901
v -4.812980 10.198282 7.707912
v -4.829890 5.999207 8.547805
v -6.599504 8.618227 5.348948
v 6.599504 8.618227 5.348948
v -4.135162 9.000924 7.580709
v 4.135162 9.000924 7.580709
v -1.551688 8.153505 9.587650
v 1.551688 8.153505 9.587650
v -3.089554 10.198278 8.422374
v 3.089554 10.198278 8.422374
# 66 vertices

vn 0.188746 -0.434307 0.880768
vn 0.624525 -0.499056 0.600759
vn 0.309605 -0.458294 0.833134
vn 0.683198 0.435381 0.586246
vn 0.660322 0.398902 0.636280
vn 0.627499 0.413596 0.659685
vn 0.592130 0.432060 0.680226
vn 0.445503 -0.473587 0.759764
vn 0.591773 0.256538 0.764195
vn 0.899530 -0.050141 0.433972
vn 0.549815 0.583397 0.597789
vn 0.731557 0.376792 0.568201
vn 0.645595 0.487999 0.587421
vn 0.256088 -0.966636 -0.005879
vn 0.262056 -0.962728 -0.066943
vn 0.276463 -0.937931 -0.209412
vn 0.737733 -0.427233 0.522707
vn 0.656706 0.318430 0.683622
vn 0.660715 -0.465288 0.589035
vn 0.390118 0.180220 0.902955
vn 0.460013 0.551340 0.695997
vn 0.385635 0.141526 0.911732
vn 0.659479 -0.425731 0.619548
vn -0.289819 0.729749 0.619250
vn -0.554646 0.621086 0.553732
vn 0.558160 -0.216172 0.801079
vn 0.568582 -0.416352 0.709483
vn 0.578963 -0.412048 0.703575
vn 0.661915 -0.412263 0.626026
vn 0.618655 -0.120931 0.776300
vn 0.826592 0.142773 0.544392
vn 0.633348 0.528506 0.565289
vn 0.533548 0.639470 0.553538
vn 0.414456 0.570955 0.708686
vn 0.545441 0.474946 0.690594
vn 0.326682 0.716360 0.616529
vn 0.075848 0.838676 -0.539324
vn -0.264418 0.767836 -0.583533
vn 0.060879 0.882839 -0.465714
vn 0.578345 0.402412 -0.709634
vn 0.165395 0.811642 -0.560251
vn 0.051193 0.739304 -0.671423
vn 0.644088 0.105615 -0.757625
vn 0.399692 0.076471 -0.913454
vn 0.644186 0.095882 -0.758835
vn 0.921485 0.236066 -0.308444
vn -0.306664 -0.951629 -0.018970
vn 0.084025 -0.952898 -0.291420
vn -0.184701 -0.818319 -0.544279
vn -0.362756 -0.797332 -0.482359
vn 0.919711 0.198784 -0.338550
vn 0.636159 0.058110 -0.769366
vn 0.412554 0.077287 -0.907649
vn -0.048113 -0.358325 0.932357
vn -0.042965 -0.370012 0.928033
vn 0.687944 0.073014 -0.722081
vn 0.384815 -0.285544 0.877714
vn 0.398622 -0.317081 0.860558
vn 0.878935 -0.314886 0.358219
vn -0.060084 0.104925 0.992663
vn -0.624525 -0.499056 0.600759
vn -0.660322 0.398902 0.636280
vn -0.323396 0.033785 0.945660
vn -0.593519 0.427529 0.681875
vn -0.445503 -0.473587 0.759764
vn -0.899530 -0.050141 0.433972
vn -0.558160 -0.216172 0.801079
vn -0.847917 0.006305 0.530092
vn -0.771550 0.447336 0.452329
vn -0.676319 0.579235 0.455061
vn -0.333761 0.515701 0.789085
vn -0.328015 0.516086 0.791241
vn 0.004565 -0.998515 0.054281
vn -0.721406 -0.148408 0.676423
vn -0.416923 -0.774096 0.476394
vn -0.705063 -0.195018 0.681802
vn 0.554646 0.621086 0.553732
vn -0.487064 -0.352539 0.799053
vn -0.376679 -0.254975 0.890562
vn -0.498387 -0.365644 0.786075
vn -0.578963 -0.412048 0.703575
vn -0.568694 -0.073833 0.819229
vn -0.459773 -0.098509 0.882556
vn -0.661915 -0.412263 0.626026
vn -0.856438 -0.007590 0.516195
vn -0.533548 0.639470 0.553538
vn -0.620187 0.580517 0.527605
vn -0.603791 0.563815 0.563515
vn -0.361369 0.250337 0.898189
vn -0.728923 0.234414 0.643212
vn -0.701408 0.185513 0.688195
vn -0.670265 0.135653 0.729618
vn -0.487300 0.666485 0.564213
vn -0.375906 0.769923 0.515668
vn -0.272405 0.651718 0.707855
vn 0.264418 0.767836 -0.583533
vn -0.913636 0.097159 0.394753
vn -0.578345 0.402412 -0.709634
vn -0.278557 0.377592 -0.883080
vn -0.051193 0.739304 -0.671423
vn -0.559232 0.276143 -0.781668
vn -0.192715 0.941226 -0.277405
vn -0.378084 0.880490 -0.285989
vn -0.644186 0.095882 -0.758835
vn -0.705712 0.130434 -0.696389
vn 0.345305 -0.902159 -0.258599
vn 0.362756 -0.797332 -0.482359
vn -0.693540 0.111408 -0.711752
vn -0.636159 0.058110 -0.769366
vn -0.412554 0.077287 -0.907649
vn 0.042965 -0.370012 0.928033
vn 0.053252 -0.346572 0.936511
vn -0.687944 0.073014 -0.722081
vn -0.515768 -0.852702 -0.082961
vn -0.533500 -0.831766 -0.153438
vn -0.495086 -0.868761 -0.012008
vn -0.568582 -0.416352 0.709483
vn -0.846355 0.303595 0.437623
vn -0.878935 -0.314886 0.358219
vn -0.865403 -0.336062 0.371671
vn 0.000000 0.290235 0.956956
vn 0.000000 0.538790 0.842440
vn 0.000000 0.585907 0.810379
vn 0.000000 0.775483 0.631368
vn 0.000000 0.966079 -0.258245
vn -0.000000 -0.809865 -0.586617
vn -0.000000 -0.789061 -0.614315
vn 0.000000 -1.000000 0.000642
vn 0.000000 -0.775016 0.631941
vn 0.000000 -0.028243 0.999601
vn 0.000000 0.918044 0.396479
vn -0.590725 0.436580 0.678559
vn 0.728923 0.234414 0.643212
vn 0.589251 -0.407678 0.697554
vn -0.916236 0.225205 0.331352
vn -0.339494 0.515297 0.786900
vn 0.000000 0.746994 0.664831
# 137 normals

vt 0.268147 0.287533 0.000000
vt 0.182066 0.287432 0.000000
vt 0.207335 0.441895 0.000000
vt 0.000000 1.000000 0.000000
vt 0.231997 0.229905 0.000000
vt 0.288326 0.229365 0.000000
vt 0.312248 0.944694 0.000000
vt 0.341354 0.944675 0.000000
vt 0.357667 0.928601 0.000000
vt 0.301905 0.914836 0.000000
vt 0.454043 0.927111 0.000000
vt 0.484682 0.914836 0.000000
vt 0.364692 0.847587 0.000000
vt 0.196342 0.170695 0.000000
vt 0.147449 0.203444 0.000000
vt 0.825389 0.805986 0.000000
vt 0.899408 0.676664 0.000000
vt 0.821276 0.672472 0.000000
vt 0.193750 0.045953 0.000000
vt 0.130041 0.116412 0.000000
vt 0.281674 0.117805 0.000000
vt 0.299853 0.606894 0.000000
vt 0.360577 0.593625 0.000000
vt 0.311151 0.580706 0.000000
vt 0.318826 0.016672 0.000000
vt 0.437131 0.600259 0.000000
vt 0.385846 0.445887 0.000000
vt 0.293494 0.969491 0.000000
vt 0.319682 0.969491 0.000000
vt 0.173260 0.162553 0.000000
vt 0.466897 0.969491 0.000000
vt 0.482151 0.944694 0.000000
vt 0.015752 0.041674 0.000000
vt 0.002389 0.060068 0.000000
vt 0.019535 0.066912 0.000000
vt 0.001992 0.074135 0.000000
vt 0.019137 0.081540 0.000000
vt 0.355753 0.882460 0.000000
vt 0.275040 0.847587 0.000000
vt 0.548609 0.537564 0.000000
vt 0.293718 0.503150 0.000000
vt 0.173243 0.539392 0.000000
vt 0.130954 0.658416 0.000000
vt 0.511868 0.610266 0.000000
vt 0.594459 0.601379 0.000000
vt 0.370099 0.286629 0.000000
vt 0.415949 0.254158 0.000000
vt 0.344853 0.208176 0.000000
vt 0.998008 0.551588 0.000000
vt 0.882525 0.577784 0.000000
vt 0.847918 0.445887 0.000000
vt 0.424527 0.148903 0.000000
vt 0.124819 0.539392 0.000000
vt 0.094120 0.445887 0.000000
vt 0.029038 0.504054 0.000000
vt 0.093890 0.658416 0.000000
vt 0.211945 0.445887 0.000000
vt 0.355402 0.969492 0.000000
vt 0.064427 0.001984 0.000000
vt 0.673417 0.287432 0.000000
vt 0.587336 0.287533 0.000000
vt 0.648148 0.441895 0.000000
vt 0.623486 0.229905 0.000000
vt 0.567157 0.229365 0.000000
vt 0.491374 0.928601 0.000000
vt 0.507687 0.944675 0.000000
vt 0.536792 0.944694 0.000000
vt 0.547136 0.914836 0.000000
vt 0.581026 0.939265 0.000000
vt 0.583557 0.969123 0.000000
vt 0.611665 0.951539 0.000000
vt 0.708035 0.203444 0.000000
vt 0.360577 0.695857 0.000000
vt 0.311151 0.708777 0.000000
vt 0.325959 0.744497 0.000000
vt 0.536657 0.016672 0.000000
vt 0.573809 0.117805 0.000000
vt 0.661734 0.045953 0.000000
vt 0.725443 0.116412 0.000000
vt 0.385846 0.843596 0.000000
vt 0.437131 0.689223 0.000000
vt 0.493638 0.969492 0.000000
vt 0.529359 0.969491 0.000000
vt 0.705398 0.178627 0.000000
vt 0.682224 0.162553 0.000000
vt 0.598811 0.993920 0.000000
vt 0.853094 0.060068 0.000000
vt 0.839732 0.041674 0.000000
vt 0.835949 0.066912 0.000000
vt 0.836346 0.081540 0.000000
vt 0.853491 0.074135 0.000000
vt 0.659142 0.170695 0.000000
vt 0.493288 0.882460 0.000000
vt 0.574000 0.847587 0.000000
vt 0.548609 0.751918 0.000000
vt 0.122467 0.755913 0.000000
vt 0.001992 0.719671 0.000000
vt 0.164755 0.874938 0.000000
vt 0.594459 0.688103 0.000000
vt 0.511868 0.679216 0.000000
vt 0.439535 0.254158 0.000000
vt 0.485385 0.286629 0.000000
vt 0.510631 0.208176 0.000000
vt 0.600594 0.551588 0.000000
vt 0.699195 0.676664 0.000000
vt 0.716078 0.577784 0.000000
vt 0.750685 0.445887 0.000000
vt 0.430956 0.148903 0.000000
vt 0.202445 0.662408 0.000000
vt 0.171746 0.755913 0.000000
vt 0.267527 0.720576 0.000000
vt 0.202675 0.874938 0.000000
vt 0.083765 0.662408 0.000000
vt 0.777326 0.672472 0.000000
vt 0.773213 0.805986 0.000000
vt 0.791056 0.001984 0.000000
vt 0.927443 0.947711 0.000000
vt 0.927443 0.872016 0.000000
vt 0.885062 0.877702 0.000000
vt 0.885062 0.942024 0.000000
vt 0.299853 0.682589 0.000000
vt 0.785074 0.872016 0.000000
vt 0.779819 0.977271 0.000000
vt 0.877052 0.977271 0.000000
vt 0.871797 0.872016 0.000000
vt 0.773273 0.854662 0.000000
vt 0.825330 0.854662 0.000000
vt 0.776830 0.868024 0.000000
vt 0.821773 0.868024 0.000000
vt 0.933786 0.916958 0.000000
vt 0.947853 0.906226 0.000000
vt 0.947853 0.882748 0.000000
vt 0.933786 0.872016 0.000000
vt 0.728130 0.872016 0.000000
vt 0.720475 0.889161 0.000000
vt 0.759263 0.889161 0.000000
vt 0.751608 0.872016 0.000000
vt 0.150085 0.178627 0.000000
vt 0.701016 0.872016 0.000000
vt 0.555547 0.969491 0.000000
vt 0.325959 0.544985 0.000000
vt 0.707708 0.978512 0.000000
vt 0.772030 0.978512 0.000000
# 143 texture coordinates

#o model:model1:Mesh78
usemtl model:model1:brown
f 3/3/3 4/2/2 2/1/1
f 2/1/6 4/2/5 5/5/4
f 6/6/7 2/1/6 5/5/4
f 7/10/8 8/9/8 62/8/8 9/7/8
f 16/35/31 21/34/30 13/33/29
f 16/35/31 10/37/33 20/36/32
f 20/36/32 21/34/30 16/35/31
f 2/55/1 6/54/55 1/53/54
f 2/55/1 1/53/54 3/56/3
f 32/62/60 31/61/61 33/60/60
f 31/61/62 34/63/62 33/60/62
f 35/64/63 34/63/64 31/61/63
f 36/68/65 38/67/65 61/66/65 37/65/65
f 45/89/85 42/88/84 50/87/83
f 45/89/88 49/91/87 39/90/86
f 49/91/89 45/89/85 50/87/83
f 31/111/63 30/110/111 35/109/63
f 31/111/112 32/112/97 30/110/97
f 13/127/29 21/129/30 50/128/83 42/126/84
f 21/133/130 20/132/130 49/131/89 50/130/83
f 20/137/131 10/136/131 39/135/131 49/134/131

usemtl model:model1:orange_dark
f 10/13/11 7/12/10 64/11/9
f 18/21/19 29/20/18 14/19/17
f 14/19/17 17/25/23 18/21/19
f 9/7/26 66/29/22 11/28/20
f 28/15/28 8/30/28 60/14/27
f 64/11/9 9/32/26 11/31/20
f 19/26/39 3/27/38 22/40/37
f 3/43/40 1/42/40 22/41/40
f 22/40/37 23/45/42 24/44/41
f 25/48/45 23/47/44 22/46/43
f 22/46/43 6/6/46 25/48/45
f 15/50/48 17/49/47 14/17/15
f 26/51/49 17/49/50 15/50/49
f 17/25/52 25/48/45 18/21/51
f 26/52/53 23/47/44 25/48/45
f 17/25/52 26/52/53 25/48/45
f 18/21/51 25/48/45 6/6/46
f 1/42/56 6/57/56 22/41/56
f 62/8/58 28/58/57 9/7/26
f 63/71/68 38/70/67 36/69/66
f 43/78/75 47/77/74 46/76/73
f 47/77/74 43/78/75 58/79/76
f 38/67/67 65/83/79 57/82/78
f 57/72/78 37/85/81 61/84/80
f 38/70/67 63/71/68 40/86/82
f 48/81/96 51/95/96 32/80/96
f 32/98/97 51/97/98 30/96/97
f 51/95/101 53/100/100 52/99/99
f 54/103/104 51/102/101 52/101/99
f 51/102/101 54/103/104 35/64/105
f 44/106/106 43/105/75 46/104/73
f 46/104/73 55/107/107 44/106/106
f 54/103/104 46/76/109 47/77/108
f 55/108/110 54/103/104 52/101/99
f 55/108/110 46/76/109 54/103/104
f 54/103/104 47/77/108 35/64/105
f 30/96/113 51/97/101 35/113/105
f 37/85/81 57/72/78 59/92/117
f 24/44/41 23/45/42 52/99/99 53/100/100
f 23/125/44 26/124/53 55/123/110 52/122/99
f 26/51/49 15/50/49 44/106/126 55/107/126
f 57/82/78 61/66/80 38/67/67
f 8/30/28 28/15/28 62/138/134
f 39/139/135 63/71/68 36/69/66
f 9/32/26 64/11/9 7/12/10
f 38/67/67 40/140/82 65/83/79
f 9/7/26 28/58/57 66/29/22

usemtl model:model1:orange_mid
f 28/15/13 60/14/12 5/5/4
f 66/24/22 4/23/21 11/22/20
f 4/23/24 3/27/25 19/26/24
f 24/44/41 19/26/39 22/40/37
f 28/15/13 5/5/4 4/2/21
f 29/20/18 16/35/31 14/19/17
f 57/72/69 33/60/70 34/63/69
f 57/75/72 65/74/71 33/73/71
f 33/73/60 48/81/77 32/80/60
f 53/100/102 51/95/103 48/81/102
f 57/72/69 34/63/69 59/92/118
f 58/79/120 43/78/120 45/89/120
f 19/26/125 24/44/125 53/100/102 48/81/102
f 33/73/71 65/74/71 40/121/136
f 28/141/13 4/23/21 66/24/22

usemtl model:model1:white_underside
f 27/18/16 14/17/15 12/16/14
f 15/50/48 14/17/15 27/18/16
f 44/106/115 56/114/114 43/105/114
f 56/114/114 41/115/116 43/105/114
f 15/50/48 27/18/16 56/114/127 44/106/127
f 27/18/16 12/16/14 41/115/128 56/114/128
f 12/16/129 13/127/129 42/126/129 41/115/129

usemtl model:model1:pasted__orange_bright_alt
f 18/21/35 60/14/35 8/30/34 29/20/18
f 29/20/18 10/37/33 16/35/31
f 10/39/33 29/38/18 7/10/36
f 29/38/18 8/9/34 7/10/36
f 59/92/91 35/64/90 47/77/74
f 59/92/91 47/77/74 58/79/76 37/85/92
f 58/79/93 45/89/88 39/90/86
f 39/94/86 36/68/94 58/93/93
f 37/65/95 58/93/95 36/68/95
f 63/120/122 64/119/9 11/118/20 40/117/121
f 11/22/123 4/23/123 33/73/123 40/121/123
f 4/23/24 19/26/24 48/81/124 33/73/124
f 60/14/12 6/6/7 5/5/4
f 35/64/132 59/92/132 34/63/132
f 6/6/46 60/14/133 18/21/51
f 39/135/137 10/136/11 64/143/9 63/142/122

usemtl model:model1:white_side
f 16/35/31 13/33/29 12/59/59 14/19/59
f 45/89/85 43/78/119 41/116/119 42/88/84

